<svg id="Layer_1" data-name="Layer 1" xmlns="http://www.w3.org/2000/svg" viewBox="0 0 199.84 22"><defs><style>.cls-1{fill:#4a62ac;}.cls-10,.cls-2{isolation:isolate;}.cls-2{font-size:11.85px;font-family:Helvetica-Bold, Helvetica Bold;font-weight:700;}.cls-2,.cls-5{fill:#fff;}.cls-3{letter-spacing:-0.01em;}.cls-4{letter-spacing:0em;}.cls-6{fill:#f1f1f2;stroke:#808184;stroke-miterlimit:10;}.cls-7{fill:#da4536;}.cls-8{fill:#404041;}.cls-9{fill:#5fa8dc;}</style></defs><title>footer</title><rect class="cls-1" y="0.5" width="60.31" height="21"/><text class="cls-2" transform="translate(21.54 15.3)">Sha<tspan class="cls-3" x="18.12" y="0">r</tspan><tspan class="cls-4" x="21.88" y="0">e</tspan></text><path class="cls-5" d="M17.5,15.25A2.77,2.77,0,0,1,14.75,18H12.92V12.24h1.94l.27-2.1H12.92V8.79A1.36,1.36,0,0,1,13.19,8a1.35,1.35,0,0,1,.92-.26h1.24v-2c-.6,0-1.19-.1-1.73-.1a2.76,2.76,0,0,0-2,.75,2.77,2.77,0,0,0-.76,2.15v1.56H8.72v2.1h2.1V18H5.65a2.37,2.37,0,0,1-1.88-.76A2.64,2.64,0,0,1,3,15.25v-9a2.64,2.64,0,0,1,.81-1.94,2.64,2.64,0,0,1,1.94-.81h9.1a2.6,2.6,0,0,1,1.88.81,2.64,2.64,0,0,1,.81,1.94v9Z"/><path class="cls-6" d="M124.38,19.42a2,2,0,0,1-1.91,2.08H68.75a2,2,0,0,1-1.91-2.08V2.58A2,2,0,0,1,68.75.5h53.72a2,2,0,0,1,1.91,2.08Z"/><polygon class="cls-7" points="88.81 8.64 87.1 8.64 87.1 10.36 85.38 10.36 85.38 12.08 87.1 12.08 87.1 13.8 88.81 13.8 88.81 12.08 90.53 12.08 90.53 10.36 88.81 10.36 88.81 8.64"/><path class="cls-7" d="M77.08,10.36v2.41h3.38a3.19,3.19,0,0,1-3.38,2.51,3.78,3.78,0,0,1,0-7.55,3.3,3.3,0,0,1,2.4.91l1.78-1.77a6.24,6.24,0,1,0-4.18,10.87,5.75,5.75,0,0,0,6-6.06A10.67,10.67,0,0,0,83,10.36Z"/><path class="cls-8" d="M94.74,12.82l1.39-.21a.93.93,0,0,0,.35.61,1.23,1.23,0,0,0,.76.21,1.38,1.38,0,0,0,.81-.19.46.46,0,0,0,.18-.37.34.34,0,0,0-.1-.26,1,1,0,0,0-.46-.18,7.27,7.27,0,0,1-2.12-.68,1.34,1.34,0,0,1-.62-1.17,1.45,1.45,0,0,1,.54-1.14A2.48,2.48,0,0,1,97.13,9a2.84,2.84,0,0,1,1.59.35,1.74,1.74,0,0,1,.72,1l-1.3.24a.85.85,0,0,0-.32-.47,1.17,1.17,0,0,0-.67-.16,1.53,1.53,0,0,0-.78.15.34.34,0,0,0-.16.28.31.31,0,0,0,.14.25,5.57,5.57,0,0,0,1.29.39,3.88,3.88,0,0,1,1.54.61,1.28,1.28,0,0,1,.43,1,1.56,1.56,0,0,1-.6,1.23,2.6,2.6,0,0,1-1.77.52A2.92,2.92,0,0,1,95.55,14,2,2,0,0,1,94.74,12.82Z"/><path class="cls-8" d="M102.2,7.11V9.76A2,2,0,0,1,103.8,9a2.2,2.2,0,0,1,.86.17,1.4,1.4,0,0,1,.57.46,1.63,1.63,0,0,1,.27.6,5.34,5.34,0,0,1,.07,1v3.06h-1.38V11.56a4.26,4.26,0,0,0-.08-1.05.68.68,0,0,0-.28-.35,1,1,0,0,0-.5-.13,1.14,1.14,0,0,0-.61.17,1,1,0,0,0-.4.5,3.19,3.19,0,0,0-.12,1v2.61h-1.38V7.11Z"/><path class="cls-8" d="M108,10.69l-1.25-.23a1.93,1.93,0,0,1,.73-1.12A2.66,2.66,0,0,1,109,9a3.22,3.22,0,0,1,1.37.22,1.31,1.31,0,0,1,.64.55A2.92,2.92,0,0,1,111.2,11V12.6a5,5,0,0,0,.07,1,2.77,2.77,0,0,0,.24.7h-1.36a2.9,2.9,0,0,1-.13-.41c0-.08,0-.13-.05-.16a2.64,2.64,0,0,1-.76.52,2.27,2.27,0,0,1-.86.17,1.78,1.78,0,0,1-1.27-.44,1.44,1.44,0,0,1-.46-1.1,1.48,1.48,0,0,1,.21-.79,1.38,1.38,0,0,1,.59-.53,4.63,4.63,0,0,1,1.1-.32,8,8,0,0,0,1.34-.34v-.14a.73.73,0,0,0-.2-.57,1.2,1.2,0,0,0-.74-.17.92.92,0,0,0-.57.15A1,1,0,0,0,108,10.69Zm1.85,1.12A8.34,8.34,0,0,1,109,12a2.38,2.38,0,0,0-.75.24.58.58,0,0,0-.27.49.69.69,0,0,0,.21.5.77.77,0,0,0,.55.21,1.19,1.19,0,0,0,.72-.25.84.84,0,0,0,.32-.45,2.54,2.54,0,0,0,.06-.68Z"/><path class="cls-8" d="M113.89,14.31h-1.38V9.09h1.28v.75a2.49,2.49,0,0,1,.59-.7A1.12,1.12,0,0,1,115,9a1.7,1.7,0,0,1,.91.26l-.43,1.2a1.22,1.22,0,0,0-.65-.23.8.8,0,0,0-.49.16A1.16,1.16,0,0,0,114,11a8.87,8.87,0,0,0-.11,1.75Z"/><path class="cls-8" d="M119.5,12.65l1.38.23A2.31,2.31,0,0,1,120,14a2.48,2.48,0,0,1-1.43.39,2.36,2.36,0,0,1-2-.89,3,3,0,0,1-.51-1.8,2.85,2.85,0,0,1,.68-2A2.22,2.22,0,0,1,118.47,9a2.3,2.3,0,0,1,1.84.77A3.37,3.37,0,0,1,121,12.1h-3.46a1.43,1.43,0,0,0,.34,1,1,1,0,0,0,.79.34.85.85,0,0,0,.55-.18A1.06,1.06,0,0,0,119.5,12.65Zm.08-1.39a1.29,1.29,0,0,0-.31-.91.93.93,0,0,0-.71-.32,1,1,0,0,0-.75.33,1.28,1.28,0,0,0-.29.9Z"/><path class="cls-9" d="M199.82,20.25a1,1,0,0,1-1.08,1h-67a1,1,0,0,1-1.08-1V1.5a1,1,0,0,1,1.08-1h67a1,1,0,0,1,1.09,1V20.25Z"/><path class="cls-5" d="M148.78,8a2.74,2.74,0,0,1-1.3.3,2.44,2.44,0,0,0,1-1.09,5.78,5.78,0,0,1-1.4.5,2.23,2.23,0,0,0-1.51-.59,2.08,2.08,0,0,0-2.15,2,.83.83,0,0,0,.11.5,7.08,7.08,0,0,1-4.42-2.18,1.51,1.51,0,0,0-.22,1,1.87,1.87,0,0,0,1,1.59,1.69,1.69,0,0,1-1-.3h0a2,2,0,0,0,1.62,1.88,5.26,5.26,0,0,0-.55.11h-.42a2.15,2.15,0,0,0,1.94,1.39,4.39,4.39,0,0,1-2.6.8h-.54a7.06,7.06,0,0,0,3.24.89,5.79,5.79,0,0,0,6-5.56V9A2.67,2.67,0,0,0,148.78,8Z"/><g class="cls-10"><path class="cls-5" d="M160.11,5.82V7.24h-3.06v7.9h-1.89V7.24h-3.07V5.82Z"/><path class="cls-5" d="M159.23,8.53h1.38a.58.58,0,0,1,.33.08.44.44,0,0,1,.18.21l1,3.53c0,.2.1.38.14.57s.07.37.1.54c.05-.18.1-.35.16-.54s.13-.37.19-.57l1.2-3.54a.41.41,0,0,1,.16-.21.48.48,0,0,1,.3-.08h.77a.55.55,0,0,1,.32.08.42.42,0,0,1,.17.21l1.16,3.54c.07.2.12.4.18.58s.1.37.15.56l.11-.56a5.75,5.75,0,0,1,.16-.58l1.05-3.53a.45.45,0,0,1,.18-.21.52.52,0,0,1,.3-.08h1.33l-2.34,6.61h-1.38a.33.33,0,0,1-.33-.27L165,11a6.24,6.24,0,0,1-.21-.76,5.51,5.51,0,0,1-.21.77l-1.31,3.82a.35.35,0,0,1-.38.27h-1.33Z"/><path class="cls-5" d="M174.16,8.42a4,4,0,0,1,1.26.2,3,3,0,0,1,1,.58,2.58,2.58,0,0,1,.64.94,3.38,3.38,0,0,1,.24,1.27.81.81,0,0,1-.09.49.37.37,0,0,1-.32.13h-4.46a2.33,2.33,0,0,0,.2.88,1.9,1.9,0,0,0,.4.61,1.46,1.46,0,0,0,.6.36,2.39,2.39,0,0,0,.77.12,3.1,3.1,0,0,0,.73-.09,3.49,3.49,0,0,0,.53-.2l.41-.2a.68.68,0,0,1,.32-.09.34.34,0,0,1,.33.15l.51.58a2.7,2.7,0,0,1-.65.52,4.46,4.46,0,0,1-.74.34,5.29,5.29,0,0,1-.79.17,7.13,7.13,0,0,1-.79.05,4.14,4.14,0,0,1-1.39-.24,3.29,3.29,0,0,1-1.13-.67,3.4,3.4,0,0,1-.75-1.11,4,4,0,0,1-.28-1.53,3.34,3.34,0,0,1,.24-1.27,3.22,3.22,0,0,1,.68-1.05,3.18,3.18,0,0,1,1.08-.69A4.36,4.36,0,0,1,174.16,8.42Zm0,1.15A1.66,1.66,0,0,0,173,10a1.78,1.78,0,0,0-.54,1.11h3.26a1.36,1.36,0,0,0-.1-.58,1.17,1.17,0,0,0-.29-.48,1.35,1.35,0,0,0-.48-.32A1.51,1.51,0,0,0,174.19,9.57Z"/><path class="cls-5" d="M181.65,8.42a3.92,3.92,0,0,1,1.26.2,2.94,2.94,0,0,1,1,.58,2.71,2.71,0,0,1,.64.94,3.38,3.38,0,0,1,.24,1.27.89.89,0,0,1-.09.49.38.38,0,0,1-.33.13h-4.45a2.53,2.53,0,0,0,.21.88,1.9,1.9,0,0,0,.4.61,1.46,1.46,0,0,0,.6.36,2.39,2.39,0,0,0,.77.12,3.1,3.1,0,0,0,.73-.09,3.49,3.49,0,0,0,.53-.2l.41-.2a.68.68,0,0,1,.32-.09.34.34,0,0,1,.33.15l.51.58a2.7,2.7,0,0,1-.65.52,4.46,4.46,0,0,1-.74.34,5.29,5.29,0,0,1-.79.17,7.13,7.13,0,0,1-.79.05,4.14,4.14,0,0,1-1.39-.24,3.29,3.29,0,0,1-1.13-.67,3.4,3.4,0,0,1-.75-1.11,4,4,0,0,1-.28-1.53,3.34,3.34,0,0,1,.24-1.27,3.22,3.22,0,0,1,.68-1.05,3.18,3.18,0,0,1,1.08-.69A4.12,4.12,0,0,1,181.65,8.42Zm0,1.15a1.66,1.66,0,0,0-1.18.4,1.78,1.78,0,0,0-.54,1.11h3.26a1.54,1.54,0,0,0-.1-.58,1.43,1.43,0,0,0-.29-.48,1.35,1.35,0,0,0-.48-.32A1.57,1.57,0,0,0,181.69,9.57Z"/><path class="cls-5" d="M188.39,15.25a1.92,1.92,0,0,1-1.43-.49,1.76,1.76,0,0,1-.51-1.34V9.72h-.74a.33.33,0,0,1-.24-.08.34.34,0,0,1-.1-.25V8.75l1.16-.17.37-1.81a.34.34,0,0,1,.13-.2.44.44,0,0,1,.26-.07h.89V8.59h1.93V9.72h-1.93v3.59a.67.67,0,0,0,.16.49.61.61,0,0,0,.46.17.88.88,0,0,0,.26,0l.19-.07.14-.07a.31.31,0,0,1,.13,0,.24.24,0,0,1,.12,0,.27.27,0,0,1,.1.11l.52.77a2.55,2.55,0,0,1-.87.44A3,3,0,0,1,188.39,15.25Z"/></g></svg>